HIERARCHY
ROOT Hips
{
	OFFSET	0.00	0.00	0.00
	CHANNELS 6 Xposition Yposition Zposition Zrotation Xrotation Yrotation
	JOINT Spine
	{
		OFFSET	 0.00	0.01	 0.00
		CHANNELS 3 Zrotation Xrotation Yrotation
		JOINT Spine1
		{
			OFFSET	 0.00	 2.45913012437421	 0.00
			CHANNELS 3 Zrotation Xrotation Yrotation
            JOINT Neck
            {
                OFFSET	 0.00	 2.48462964506057	 0.00
                CHANNELS 3 Zrotation Xrotation Yrotation
                JOINT Head
                {
                    OFFSET	 0.00	 0.927524780924562	 0.00
                    CHANNELS 3 Zrotation Xrotation Yrotation
                    End Site 
                    {
                        OFFSET	 0.00	 1.14999962169752	 0.00
                    }
                }
            }
			JOINT LeftShoulder
			{
				OFFSET	 0.00	 2.48462964506057	 0.00
				CHANNELS 3 Zrotation Xrotation Yrotation
				JOINT LeftUpArm
				{
					OFFSET	 0.00	 1.24881979654096	 0.00
					CHANNELS 3 Zrotation Xrotation Yrotation
					JOINT LeftForeArm
					{
						OFFSET	 0.00	2.59758046908119	 0.00
						CHANNELS 3 Zrotation Xrotation Yrotation
						JOINT LeftHand
						{
							OFFSET	 0.00	2.45542024364365	 0.00
							CHANNELS 3 Zrotation Xrotation Yrotation
							JOINT LeftHandThumb 
							{
								OFFSET	 0.00	0.00	 0.00
								CHANNELS 3 Zrotation Xrotation Yrotation
								End Site
								{
									OFFSET	 0.00	0.00	1.00000003353624
								}
							}
							JOINT L_Wrist_End 
							{
								OFFSET	 0.00	0.99999967115358	 0.00
								CHANNELS 3 Zrotation Xrotation Yrotation
								End Site 
								{
									OFFSET	 0.00	 0.00	 0.00
								}
							}
						}
					}
				}
			}
			JOINT RightShoulder
			{
				OFFSET	 0.00	 2.48462964506057	 0.00
				CHANNELS 3 Zrotation Xrotation Yrotation
				JOINT RightUpArm
				{
					OFFSET	 0.00	 1.24881979654096	 0.00
					CHANNELS 3 Zrotation Xrotation Yrotation
					JOINT RightForeArm
					{
						OFFSET	 0.00	2.59758046908119	 0.00
						CHANNELS 3 Zrotation Xrotation Yrotation
						JOINT RightHand
						{
							OFFSET	 0.00	2.45542024364365	 0.00
							CHANNELS 3 Zrotation Xrotation Yrotation
							JOINT RightHandThumb 
							{
								OFFSET	 0.00	0.00	 0.00
								CHANNELS 3 Zrotation Xrotation Yrotation
								End Site
								{
									OFFSET	 0.00	0.00	1.00000003353624
								}
							}
							JOINT R_Wrist_End 
							{
								OFFSET	 0.00	0.99999967115358	 0.00
								CHANNELS 3 Zrotation Xrotation Yrotation
								End Site 
								{
									OFFSET	 0.00	 0.00	 0.00
								}
							}
						}
					}
				}
			}
		}
	}
	JOINT LeftUpLeg
	{
		OFFSET	 1.2719394002717	 0.00	 0.00
		CHANNELS 3 Zrotation Xrotation Yrotation
		JOINT LeftLowLeg
		{
			OFFSET	 0.00	-4.3429100912261	 0.00
			CHANNELS 3 Zrotation Xrotation Yrotation
			JOINT LeftFoot
			{
				OFFSET	 0.00	-4.48767017425826	 0.00
				CHANNELS 3 Zrotation Xrotation Yrotation
				JOINT LeftToeBase
                {
                    OFFSET	 0.00	0.00	 1.51507020887566
                    CHANNELS 3 Zrotation Xrotation Yrotation
                    End Site 
                    {
                        OFFSET	 0.00	0.00	 0.75000010571191
                    }
                }
			}
		}
	}
	JOINT RightUpLeg
	{
		OFFSET	 -1.2719393604653	 0.00	 0.00
		CHANNELS 3 Zrotation Xrotation Yrotation
		JOINT RightLowLeg
		{
			OFFSET	 0.00	-4.3429100912261	 0.00
			CHANNELS 3 Zrotation Xrotation Yrotation
			JOINT RightFoot
			{
				OFFSET	 0.00	-4.48767017425826	 0.00
				CHANNELS 3 Zrotation Xrotation Yrotation
				JOINT RightToeBase
                {
                    OFFSET	 0.00	0.00	 1.51507020887566
                    CHANNELS 3 Zrotation Xrotation Yrotation
                    End Site 
                    {
                        OFFSET	 0.00	0.00	 0.749999965609858
                    }
                }   
			}
		}
	}
}
MOTION 
Frames:	15 
Frame Time: 0.02 
  -0.7271820068359375 2.038760070800781 7.071680297851563 -19.4272 72.7286 21.3533 12.9362 1.84173 0.483045 -18.8015 36.653 2.7857 50.7044 48.0733 -80.4952 70.7385 -30.0453 67.2138 -112.3296 8.83626 -1.23448 -33.6629 31.713 46.0728 0.0 98.9461 0.0 51.6867 5.57796 -3.01238 0.0 0.0 0.0 0.0 0.0 0.0 116.8599 -4.05946 5.82953 -20.2846 17.3596 1.82812 0.0 122.267 0.0 -32.5083 23.1415 -18.9653 0.0 0.0 0.0 0.0 0.0 0.0 25.4344 -51.481 28.1608 0.0 89.0046 0.0 1.14238 -6.8747005 19.551 0.0 -23.52451 0.0 -9.8725 -51.7911 -23.9135 0.0 80.0649 0.0 15.1082 4.1022997 -17.9747 0.0 -19.74356 0.0 
  -0.7237349700927734 2.0313800048828123 7.07344970703125 -20.4906 72.5507 22.2285 12.1219 1.12059 -0.52454 -17.6234 38.0119 3.33221 48.5882 47.5725 -78.9509 70.3491 -30.1609 67.0009 -112.4497 9.03848 -2.18459 -34.1399 31.5028 46.0822 0.0 99.0077 0.0 51.9191 5.52294 -3.42628 0.0 0.0 0.0 0.0 0.0 0.0 116.1717 -3.85118 6.84931 -19.8468 17.7234 1.5832 0.0 122.868 0.0 -31.0881 22.2061 -13.7181 0.0 0.0 0.0 0.0 0.0 0.0 25.9995 -51.3821 28.4182 0.0 89.2119 0.0 1.1322 -7.0147 19.5178 0.0 -23.47813 0.0 -9.50188 -51.6064 -23.9511 0.0 79.9261 0.0 15.0066 4.177 -17.8418 0.0 -19.77659 0.0 
  -0.7147660064697265 2.0272200012207033 7.068989868164063 -21.381 72.391 22.909 11.8017 1.37764 -0.933433 -16.8345 37.5955 2.87767 48.7421 48.3777 -79.0244 70.7428 -30.7389 67.6484 -112.7022 8.92501 -2.18565 -33.9425 31.0497 45.8559 0.0 99.0353 0.0 52.021 5.81897 -3.37195 0.0 0.0 0.0 0.0 0.0 0.0 116.160904 -3.60753 6.82935 -19.7622 18.0467 0.51728 0.0 123.231 0.0 -33.4278 19.8879 -8.57611 0.0 0.0 0.0 0.0 0.0 0.0 26.4477 -51.3461 28.626 0.0 89.4584 0.0 1.15037 -7.1681004 19.5714 0.0 -23.376621 0.0 -9.25848 -51.5273 -24.0051 0.0 79.8788 0.0 14.8981 4.3322 -17.7055 0.0 -19.85852 0.0 
  -0.7052749633789063 2.021920013427734 7.065059814453125 -22.5437 72.3078 23.7063 11.4516 1.33143 -1.36948 -16.0501 37.5268 2.71949 48.4275 48.8162 -78.7716 70.8149 -31.1638 67.9896 -112.7708 8.92309 -2.20939 -33.8877 30.7498 45.505 0.0 99.0836 0.0 52.0318 5.99592 -3.39972 0.0 0.0 0.0 0.0 0.0 0.0 116.102 -3.60415 6.47517 -20.1271 18.8288 0.200539 0.0 123.107 0.0 -37.2323 17.4693 -4.21737 0.0 0.0 0.0 0.0 0.0 0.0 27.1433 -51.3373 29.0834 0.0 89.7515 0.0 1.17598 -7.3374996 19.6381 0.0 -23.272621 0.0 -8.81789 -51.5658 -23.8756 0.0 79.7917 0.0 14.7911 4.4988003 -17.559 0.0 -19.96332 0.0 
  -0.6914409637451172 2.015959930419922 7.063049926757812 -23.5328 72.2312 24.375 11.0236 1.23881 -1.87597 -15.1809 37.5875 2.61855 48.1073 49.0483 -78.5726 70.9089 -31.5136 68.5247 -112.9908 8.96359 -2.38987 -33.7792 30.516 45.3682 0.0 99.1462 0.0 52.1087 6.00844 -3.38277 0.0 0.0 0.0 0.0 0.0 0.0 115.9501 -3.5237 6.26218 -20.507 19.5218 0.342512 0.0 122.795 0.0 -40.3468 15.2797 -2.32029 0.0 0.0 0.0 0.0 0.0 0.0 27.5981 -51.3276 29.3397 0.0 89.9892 0.0 1.20511 -7.5018997 19.7761 0.0 -23.15784 0.0 -8.53616 -51.557 -23.8534 0.0 79.7101 0.0 14.7194 4.6467 -17.35 0.0 -20.03751 0.0 
  -0.675155029296875 2.0114900207519533 7.06198974609375 -24.5477 72.0845 25.018 10.8239 1.22874 -2.23034 -14.6362 37.6043 2.47137 48.0122 49.2717 -78.4931 70.9442 -31.726 69.0101 -113.024 9.01071 -2.46461 -33.6247 30.3304 45.131 0.0 99.1967 0.0 52.1159 5.93283 -3.45424 0.0 0.0 0.0 0.0 0.0 0.0 115.9947 -3.42724 5.95829 -21.0229 20.1875 1.33263 0.0 122.006 0.0 -42.0479 13.7515 -2.40727 0.0 0.0 0.0 0.0 0.0 0.0 28.0423 -51.2517 29.5514 0.0 90.2226 0.0 1.25046 -7.6844997 19.9475 0.0 -22.98711 0.0 -8.17946 -51.4811 -23.7718 0.0 79.5726 0.0 14.6376 4.8451996 -17.1224 0.0 -20.11879 0.0 
  -0.6614309692382813 2.0050199890136717 7.060380249023438 -25.8625 72.1709 25.8535 10.5674 1.0159 -2.48801 -14.1251 37.5183 2.44812 48.0442 49.489 -78.5071 70.9948 -31.9002 69.5622 -113.0242 9.01732 -2.5188 -33.5738 30.2143 45.004 0.0 99.2031 0.0 52.187 5.7407 -3.59754 0.0 0.0 0.0 0.0 0.0 0.0 115.9802 -3.30371 5.99691 -21.2727 20.7308 2.42216 0.0 120.846 0.0 -42.0843 13.1237 -3.39172 0.0 0.0 0.0 0.0 0.0 0.0 28.746 -51.3203 30.0974 0.0 90.4644 0.0 1.29183 -7.9195004 20.0934 0.0 -22.72887 0.0 -7.70121 -51.7104 -23.5116 0.0 79.4754 0.0 14.6016 5.0223703 -16.9354 0.0 -20.20204 0.0 
  -0.6530079650878906 1.9977400207519531 7.0585699462890625 -27.8402 72.5087 27.2794 10.0524 0.46011 -2.86696 -13.1835 37.448 2.67715 47.7204 49.6915 -78.2821 71.1193 -32.1888 69.8954 -113.3034 9.11978 -2.55759 -33.4943 30.1136 44.9269 0.0 99.1698 0.0 52.2982 5.61896 -3.79992 0.0 0.0 0.0 0.0 0.0 0.0 115.765 -3.23118 5.90146 -21.6474 21.0538 3.84641 0.0 119.397 0.0 -40.8749 12.9974 -5.57229 0.0 0.0 0.0 0.0 0.0 0.0 29.8459 -51.6377 31.0111 0.0 90.7502 0.0 1.29479 -8.169001 20.1938 0.0 -22.3851 0.0 -7.0932 -52.2422 -23.2145 0.0 79.3463 0.0 14.5481 5.17064 -16.7681 0.0 -20.26201 0.0 
  -0.6317010116577149 1.9936099243164063 7.058839721679687 -28.3343 72.3024 27.612 9.75572 0.610759 -3.30225 -12.2834 37.37 2.60699 47.2078 49.9604 -77.9058 71.6221 -32.5629 70.171 -113.7444 9.35264 -2.35118 -33.1404 30.0631 44.5858 0.0 99.2182 0.0 52.3355 5.60246 -3.95464 0.0 0.0 0.0 0.0 0.0 0.0 114.5402 -3.03726 5.86449 -20.128 20.3244 6.71331 0.0 121.337 0.0 -29.851 1.89395 -8.04214 0.0 0.0 0.0 0.0 0.0 0.0 29.6944 -51.598 30.6543 0.0 90.8927 0.0 1.27101 -8.2875 20.5094 0.0 -22.101059 0.0 -7.11639 -52.0185 -23.4043 0.0 79.266 0.0 14.5797 5.3150797 -16.451 0.0 -20.335041 0.0 
  -0.6124160003662109 1.9890699768066407 7.060869750976562 -29.0043 72.1789 28.1226 9.60968 0.567654 -3.5687 -11.8106 37.483 2.61634 46.6368 49.9468 -77.4038 71.8372 -32.6136 70.3849 -113.8216 9.46244 -2.57747 -33.2213 29.9947 44.7033 0.0 99.2048 0.0 52.4547 5.61978 -3.84273 0.0 0.0 0.0 0.0 0.0 0.0 114.3253 -2.94789 5.99503 -20.1444 20.0949 7.42581 0.0 120.64 0.0 -27.5519 -0.728495 -10.4611 0.0 0.0 0.0 0.0 0.0 0.0 29.6535 -51.6149 30.4082 0.0 91.0138 0.0 1.19952 -8.435801 20.735 0.0 -21.69009 0.0 -7.17706 -51.8485 -23.7152 0.0 79.1459 0.0 14.4872 5.4533997 -16.1504 0.0 -20.3587 0.0 
  -0.5971770095825195 1.9872099304199218 7.061690063476562 -30.1047 72.1745 29.0723 9.51348 0.547644 -3.73424 -11.3327 37.2964 2.63819 46.4211 49.9961 -77.225 72.2284 -32.6994 70.8999 -114.0143 9.5306 -2.53316 -33.138 30.0329 44.6722 0.0 99.1862 0.0 52.4931 5.7328 -3.78775 0.0 0.0 0.0 0.0 0.0 0.0 114.2264 -2.91698 5.99848 -20.0497 19.6493 8.09408 0.0 120.445 0.0 -23.9161 -3.40365 -13.0692 0.0 0.0 0.0 0.0 0.0 0.0 29.8546 -51.8293 30.3518 0.0 91.1605 0.0 1.12261 -8.5138 20.9304 0.0 -21.11991 0.0 -7.18644 -51.8399 -24.0965 0.0 78.9765 0.0 14.2892 5.61868 -15.945 0.0 -20.43561 0.0 
  -0.5834600067138672 1.9838499450683593 7.064429931640625 -30.8191 72.0389 29.8075 9.37961 0.614575 -3.95678 -10.8648 37.3358 2.64741 45.9294 49.7288 -76.8496 72.6761 -32.6376 71.8597 -114.2358 9.42642 -2.64323 -33.1211 30.2292 44.8159 0.0 99.2349 0.0 52.4854 5.66824 -3.83961 0.0 0.0 0.0 0.0 0.0 0.0 113.7023 -2.658 7.91448 -18.5296 19.2244 6.62726 0.0 120.752 0.0 -19.5517 -3.56485 -16.6354 0.0 0.0 0.0 0.0 0.0 0.0 29.7585 -51.95 29.9705 0.0 91.2564 0.0 1.0271 -8.5889 21.1091 0.0 -20.46574 0.0 -7.29944 -51.6523 -24.5136 0.0 78.8588 0.0 14.2371 5.73897 -15.7093 0.0 -20.4889 0.0 
  -0.5748889923095704 1.9797300720214843 7.067219848632813 -31.6879 71.8848 30.7254 9.21279 0.570592 -4.17092 -10.369 37.4244 2.7399 44.9971 49.5659 -75.9484 73.0967 -32.5079 73.0587 -114.4031 9.51309 -2.62467 -33.1204 30.2519 44.7402 0.0 99.3032 0.0 52.5216 5.73168 -3.79805 0.0 0.0 0.0 0.0 0.0 0.0 114.3231 -2.89468 7.93773 -19.4416 19.1437 6.04848 0.0 118.35 0.0 -21.7882 7.42817 -20.63 0.0 0.0 0.0 0.0 0.0 0.0 29.8277 -52.0763 29.6902 0.0 91.3725 0.0 0.920049 -8.676701 21.1918 0.0 -19.58918 0.0 -7.27182 -51.4745 -24.8435 0.0 78.7235 0.0 14.2321 5.8066597 -15.5392 0.0 -20.53793 0.0 
  -0.5707789993286133 1.9757499694824219 7.068690185546875 -32.78 71.8076 31.8445 8.9276 0.435923 -4.50057 -9.60662 37.4839 2.86241 42.9882 49.6236 -73.9282 73.7787 -32.4351 74.4034 -114.757904 9.58168 -2.69945 -33.0892 30.1115 44.6552 0.0 99.4356 0.0 52.465 5.76625 -3.88856 0.0 0.0 0.0 0.0 0.0 0.0 114.0558 -2.93533 8.05151 -18.8357 18.5469 6.64697 0.0 118.828 0.0 -16.5814 9.46105 -21.828 0.0 0.0 0.0 0.0 0.0 0.0 30.1331 -52.2721 29.6547 0.0 91.5064 0.0 0.879312 -8.765301 21.2353 0.0 -18.57502 0.0 -7.14653 -51.4296 -25.1057 0.0 78.6002 0.0 14.2193 5.85102 -15.4287 0.0 -20.5464 0.0 
  -0.5668479919433593 1.9735400390625 7.069310302734375 -33.6837 71.6531 32.8039 8.50194 0.325825 -4.97933 -8.55101 37.6541 3.01511 39.9655 49.7154 -70.9462 74.4628 -32.4643 75.6521 -115.2204 9.69425 -2.69013 -33.0935 29.9923 44.4185 0.0 99.5414 0.0 52.5738 5.78754 -3.87878 0.0 0.0 0.0 0.0 0.0 0.0 113.604996 -2.90514 8.15598 -18.1731 17.9877 7.38373 0.0 119.511 0.0 -10.8735 10.1144 -18.3375 0.0 0.0 0.0 0.0 0.0 0.0 30.3748 -52.4123 29.5504 0.0 91.6316 0.0 0.831343 -8.8311 21.2722 0.0 -17.32381 0.0 -6.97411 -51.3301 -25.2712 0.0 78.4787 0.0 14.2406 5.91121 -15.3815 0.0 -20.64127 0.0 
